<svg xmlns="http://www.w3.org/2000/svg" viewBox="0 0 1920 1920">
  <defs>
    <style>
      .cls-1 {
        fill: none;
        stroke: #fff;
        stroke-miterlimit: 10;
        stroke-width: 15px;
      }
    </style>
  </defs>
  <g id="圖層_2" data-name="圖層 2">
    <g>
      <ellipse id="蓮花外圈" class="cls-1" cx="960" cy="959.5" rx="952.5" ry="951.8"/>
      <ellipse id="蓮花的中央" class="cls-1" cx="960" cy="959.5" rx="317.5" ry="317.27"/>
      <g id="八瓣蓮花">
        <g>
          <g>
            <g>
              <line class="cls-1" x1="1088.53" y1="1255.77" x2="1272.26" y2="1691.94"/>
              <line class="cls-1" x1="1264.78" y1="1077.95" x2="1695.23" y2="1262.97"/>
              <path id="蓮花的中央-2" data-name="蓮花的中央" class="cls-1" d="M1637,1631.82c-123.06,123.3-364.69,60.12-364.69,60.12s241.63,63.18,364.69-60.12C1761,1507.48,1695.23,1263,1695.23,1263S1761,1507.48,1637,1631.82Z"/>
            </g>
            <g>
              <line class="cls-1" x1="1257.01" y1="1081.11" x2="1695.57" y2="1259.71"/>
              <line class="cls-1" x1="1255.81" y1="830.84" x2="1691.11" y2="657.52"/>
              <path id="蓮花的中央-3" data-name="蓮花的中央" class="cls-1" d="M1910.9,959.52c.24,174.13-215.33,300.19-215.33,300.19s215.57-126.06,215.33-300.19c-.24-175.6-219.79-302-219.79-302S1910.66,783.92,1910.9,959.52Z"/>
            </g>
          </g>
          <g>
            <g>
              <line class="cls-1" x1="1253.39" y1="828.77" x2="1689.88" y2="645.17"/>
              <line class="cls-1" x1="1075.45" y1="652.65" x2="1260.61" y2="222.51"/>
              <path id="蓮花的中央-4" data-name="蓮花的中央" class="cls-1" d="M1629.72,280.75c123.39,123,60.17,364.42,60.17,364.42s63.22-241.45-60.17-364.42c-124.43-124-369.11-58.24-369.11-58.24S1505.29,156.76,1629.72,280.75Z"/>
            </g>
            <g>
              <line class="cls-1" x1="1078.61" y1="660.41" x2="1257.34" y2="222.17"/>
              <line class="cls-1" x1="828.15" y1="661.61" x2="654.71" y2="226.63"/>
              <path id="蓮花的中央-5" data-name="蓮花的中央" class="cls-1" d="M956.92,7c174.27-.24,300.42,215.17,300.42,215.17S1131.19,6.76,956.92,7C781.2,7.24,654.71,226.63,654.71,226.63S781.2,7.24,956.92,7Z"/>
            </g>
          </g>
        </g>
        <g>
          <g>
            <g>
              <line class="cls-1" x1="831.47" y1="663.23" x2="647.74" y2="227.06"/>
              <line class="cls-1" x1="655.22" y1="841.05" x2="224.77" y2="656.03"/>
              <path id="蓮花的中央-6" data-name="蓮花的中央" class="cls-1" d="M283.05,287.18c123.06-123.3,364.69-60.12,364.69-60.12s-241.63-63.18-364.69,60.12C159,411.52,224.77,656,224.77,656S159,411.52,283.05,287.18Z"/>
            </g>
            <g>
              <line class="cls-1" x1="662.99" y1="837.89" x2="224.43" y2="659.29"/>
              <line class="cls-1" x1="664.19" y1="1088.16" x2="228.89" y2="1261.48"/>
              <path id="蓮花的中央-7" data-name="蓮花的中央" class="cls-1" d="M9.1,959.48C8.86,785.35,224.43,659.29,224.43,659.29S8.86,785.35,9.1,959.48c.24,175.6,219.79,302,219.79,302S9.34,1135.08,9.1,959.48Z"/>
            </g>
          </g>
          <g>
            <g>
              <line class="cls-1" x1="666.61" y1="1090.23" x2="230.12" y2="1273.83"/>
              <line class="cls-1" x1="844.55" y1="1266.35" x2="659.39" y2="1696.49"/>
              <path id="蓮花的中央-8" data-name="蓮花的中央" class="cls-1" d="M290.28,1638.25c-123.39-123-60.17-364.42-60.17-364.42s-63.22,241.45,60.17,364.42c124.43,124,369.11,58.24,369.11,58.24S414.71,1762.24,290.28,1638.25Z"/>
            </g>
            <g>
              <line class="cls-1" x1="841.39" y1="1258.59" x2="662.66" y2="1696.83"/>
              <line class="cls-1" x1="1091.85" y1="1257.39" x2="1265.29" y2="1692.37"/>
              <path id="蓮花的中央-9" data-name="蓮花的中央" class="cls-1" d="M963.08,1912c-174.27.24-300.42-215.17-300.42-215.17S788.81,1912.24,963.08,1912c175.72-.24,302.21-219.63,302.21-219.63S1138.8,1911.76,963.08,1912Z"/>
            </g>
          </g>
        </g>
      </g>
    </g>
  </g>
</svg>
